<svg width="59" height="61" viewBox="0 0 59 61" fill="none" xmlns="http://www.w3.org/2000/svg">
<path d="M48.9 21.088H59V0.418016C56.2405 -0.173855 51.2641 -0.180516 47.8394 0.678622C44.4147 1.53776 41.2231 3.14565 38.4945 5.38651C35.7659 7.62736 33.5681 10.4454 32.0595 13.6377C30.5509 16.83 29.769 20.3172 29.77 23.848V29.718H23.88C17.5466 29.718 11.4727 32.2339 6.9943 36.7123C2.51593 41.1907 7.06021e-06 47.2647 7.06021e-06 53.598L0 60.9609H21.1951V59.9609C21.1951 59.9609 21.1938 59.5998 21.1951 59.258L21.13 48.858C21.1296 48.5164 21.1965 48.1781 21.3269 47.8624C21.4573 47.5467 21.6487 47.2598 21.89 47.018C22.3807 46.5343 23.041 46.2615 23.73 46.258H45C45.3448 46.258 45.6755 46.1211 45.9193 45.8773C46.163 45.6335 46.3 45.3028 46.3 44.958V23.688C46.2987 23.3462 46.365 23.0075 46.4952 22.6915C46.6254 22.3754 46.8169 22.0883 47.0586 21.8466C47.3003 21.6049 47.5874 21.4134 47.9035 21.2832C48.2195 21.153 48.5582 21.0867 48.9 21.088Z" fill="#C3C430"/>
</svg>